<?xml version="1.0" encoding="UTF-8" standalone="no"?>
<!-- Created with Inkscape (http://www.inkscape.org/) -->

<svg
   width="100"
   height="100"
   viewBox="0 0 26.458333 26.458334"
   version="1.1"
   id="svg5"
   xmlns="http://www.w3.org/2000/svg"
   xmlns:svg="http://www.w3.org/2000/svg">
  <defs
     id="defs2" />
  <path
     id="rect846"
     style="fill:#0063b0;fill-opacity:1;stroke-width:0.264583;stroke-linecap:round;paint-order:stroke fill markers"
     d="M 4.650879,1.6666666e-7 C 3.6876744,1.6666666e-7 2.9124839,0.77519075 2.9124839,1.7383954 V 24.719938 c 0,0.963204 0.7751905,1.738395 1.7383951,1.738395 h 5.1650594 c 0.9632046,0 1.7383946,-0.775191 1.7383946,-1.738395 V 1.7383954 C 11.554333,0.77519075 10.779143,1.6666666e-7 9.8159384,1.6666666e-7 Z m 11.991516,0 C 15.679191,1.6666666e-7 14.904,0.77519083 14.904,1.7383954 V 24.719938 c 0,0.963205 0.775191,1.738395 1.738395,1.738395 h 5.165059 c 0.963204,0 1.738395,-0.77519 1.738395,-1.738395 V 1.7383954 C 23.545849,0.77519083 22.770658,1.6666666e-7 21.807454,1.6666666e-7 Z" />
</svg>
