<?xml version="1.0" encoding="UTF-8" standalone="no"?>
<!-- Created with Inkscape (http://www.inkscape.org/) -->

<svg
   width="100"
   height="100"
   viewBox="0 0 26.458333 26.458334"
   version="1.1"
   id="svg5"
   inkscape:version="1.1 (c68e22c387, 2021-05-23)"
   sodipodi:docname="play-hover.svg"
   xmlns:inkscape="http://www.inkscape.org/namespaces/inkscape"
   xmlns:sodipodi="http://sodipodi.sourceforge.net/DTD/sodipodi-0.dtd"
   xmlns="http://www.w3.org/2000/svg"
   xmlns:svg="http://www.w3.org/2000/svg">
  <sodipodi:namedview
     id="namedview7"
     pagecolor="#505050"
     bordercolor="#eeeeee"
     borderopacity="1"
     inkscape:pageshadow="0"
     inkscape:pageopacity="0"
     inkscape:pagecheckerboard="0"
     inkscape:document-units="px"
     showgrid="false"
     units="px"
     inkscape:snap-object-midpoints="true"
     inkscape:snap-center="true"
     inkscape:snap-text-baseline="true"
     inkscape:snap-grids="true"
     inkscape:snap-page="true"
     inkscape:snap-to-guides="true"
     inkscape:snap-midpoints="true"
     inkscape:snap-smooth-nodes="true"
     inkscape:snap-intersection-paths="true"
     inkscape:object-paths="true"
     inkscape:snap-bbox="true"
     inkscape:bbox-paths="true"
     inkscape:snap-bbox-edge-midpoints="true"
     inkscape:snap-bbox-midpoints="true"
     inkscape:bbox-nodes="true"
     inkscape:zoom="4.9420844"
     inkscape:cx="46.033208"
     inkscape:cy="48.562506"
     inkscape:window-width="1920"
     inkscape:window-height="1008"
     inkscape:window-x="-8"
     inkscape:window-y="-8"
     inkscape:window-maximized="1"
     inkscape:current-layer="svg5"
     showguides="true"
     inkscape:snap-perpendicular="true"
     inkscape:snap-tangential="true"
     inkscape:snap-nodes="true" />
  <defs
     id="defs2" />
  <path
     id="path9245"
     style="color:#000000;fill:#0091ff;stroke-width:0.0110858;stroke-linecap:round;-inkscape-stroke:none;paint-order:stroke fill markers;fill-opacity:1"
     d="M 7.3750956,1.2823447 A 3.8090974,4.4237779 0 0 0 3.5661588,5.705935 v 15.046463 a 3.8090974,4.4237779 0 0 0 3.8089368,4.423591 3.8090974,4.4237779 0 0 0 1.819481,-0.540407 l 0.0025,0.0019 11.7808224,-7.451364 v -4.63e-4 A 3.8090974,4.4237779 0 0 0 22.892175,13.348671 3.8090974,4.4237779 0 0 0 20.940091,9.4864889 V 9.4860218 L 9.2512336,1.8563522 a 3.8090974,4.4237779 0 0 0 -0.0096,-0.00654 h -4.02e-4 A 3.8090974,4.4237779 0 0 0 7.3750956,1.2823447 Z" />
</svg>
