<?xml version="1.0" standalone="no"?>
<!DOCTYPE svg PUBLIC "-//W3C//DTD SVG 20010904//EN"
 "http://www.w3.org/TR/2001/REC-SVG-20010904/DTD/svg10.dtd">
<svg version="1.0" xmlns="http://www.w3.org/2000/svg"
 width="150.000000pt" height="150.000000pt" viewBox="0 0 150.000000 150.000000"
 preserveAspectRatio="xMidYMid meet">
<metadata>
Created by potrace 1.14, written by Peter Selinger 2001-2017
</metadata>
<g transform="translate(0.000000,150.000000) scale(0.100000,-0.100000)"
fill="#000000" stroke="none">
<path d="M350 1381 c0 -21 8 -35 29 -51 21 -14 32 -33 38 -62 5 -23 13 -43 19
-45 23 -8 -12 90 -39 112 -15 11 -27 30 -27 42 0 12 -4 25 -10 28 -6 4 -10 -6
-10 -24z"/>
<path d="M1160 1253 c-36 -24 -41 -35 -24 -54 18 -20 18 -40 -1 -65 -16 -22
-19 -34 -7 -34 10 0 42 65 42 85 0 8 -8 18 -17 24 -15 8 -14 12 15 28 17 10
32 21 32 26 0 11 -14 8 -40 -10z"/>
<path d="M131 1113 c-1 -31 -2 -32 -26 -21 -35 16 -52 -2 -25 -27 19 -17 19
-19 2 -31 -9 -7 -14 -15 -11 -18 3 -4 17 3 30 14 24 20 24 20 5 35 -11 8 -15
15 -9 15 7 0 15 -4 18 -10 19 -31 41 13 26 51 -9 23 -10 22 -10 -8z"/>
<path d="M546 1095 c-128 -45 -196 -145 -153 -222 19 -34 87 -103 101 -103 7
0 -12 25 -42 55 -54 54 -55 55 -50 105 4 38 12 59 34 82 40 42 122 77 208 88
82 10 243 -3 307 -25 154 -55 200 -163 124 -290 -20 -32 -34 -63 -32 -68 6
-20 76 106 83 149 9 60 -2 96 -43 143 -44 52 -89 75 -186 95 -119 25 -267 21
-351 -9z"/>
<path d="M160 1021 c0 -5 17 -20 38 -33 20 -12 61 -42 90 -66 30 -24 56 -41
60 -38 6 7 2 11 -89 79 -75 58 -99 71 -99 58z"/>
<path d="M536 933 c-4 -9 -2 -21 3 -26 15 -15 41 0 41 23 0 25 -35 28 -44 3z"/>
<path d="M1420 911 c-13 -26 -13 -31 5 -31 8 0 15 -4 15 -10 0 -5 11 -10 24
-10 29 0 46 20 19 21 -10 0 -13 3 -5 6 25 10 11 24 -18 18 -25 -5 -29 -4 -24
9 9 23 -3 20 -16 -3z"/>
<path d="M979 904 c-9 -11 -9 -18 -1 -26 14 -14 42 -3 42 16 0 20 -27 27 -41
10z"/>
<path d="M692 858 c7 -19 48 -38 87 -38 40 0 101 20 101 33 0 5 -8 6 -17 2
-42 -18 -122 -18 -149 0 -19 12 -25 13 -22 3z"/>
<path d="M1288 808 c-49 -27 -88 -54 -88 -59 0 -5 31 7 68 28 87 48 118 69
112 76 -3 3 -44 -18 -92 -45z"/>
<path d="M377 719 c-81 -94 -37 -196 114 -262 29 -13 66 -27 82 -31 23 -5 27
-12 27 -41 0 -38 -5 -40 -45 -25 -46 17 -88 -47 -46 -70 13 -6 28 -7 43 -1 21
9 20 10 -10 10 -29 1 -33 4 -30 24 3 23 15 25 70 11 26 -6 28 -4 34 35 l7 41
51 -7 c59 -9 224 -8 262 1 l26 7 -7 -52 c-7 -48 -6 -51 11 -45 11 4 33 9 49
11 17 1 22 0 13 -2 -29 -7 -21 -25 9 -21 36 4 43 35 11 43 -13 3 -36 1 -51 -4
-23 -9 -27 -8 -27 7 1 47 14 63 76 92 89 41 127 106 90 156 -13 17 -14 15 -9
-24 7 -51 -15 -80 -88 -118 -102 -51 -378 -60 -411 -13 -7 10 -11 11 -14 2 -4
-8 -19 -7 -58 7 -120 41 -178 84 -197 148 -15 50 -1 90 42 127 30 25 36 35 20
35 -5 0 -25 -18 -44 -41z"/>
</g>
</svg>
