<?xml version="1.0" encoding="UTF-8" standalone="no"?>
<!-- Created with Inkscape (http://www.inkscape.org/) -->

<svg
   width="50"
   height="50"
   viewBox="0 0 13.229166 13.229167"
   version="1.1"
   id="svg5"
   inkscape:version="1.1 (c68e22c387, 2021-05-23)"
   sodipodi:docname="brake-click.svg"
   xmlns:inkscape="http://www.inkscape.org/namespaces/inkscape"
   xmlns:sodipodi="http://sodipodi.sourceforge.net/DTD/sodipodi-0.dtd"
   xmlns="http://www.w3.org/2000/svg"
   xmlns:svg="http://www.w3.org/2000/svg">
  <sodipodi:namedview
     id="namedview7"
     pagecolor="#505050"
     bordercolor="#eeeeee"
     borderopacity="1"
     inkscape:pageshadow="0"
     inkscape:pageopacity="0"
     inkscape:pagecheckerboard="0"
     inkscape:document-units="px"
     showgrid="false"
     units="px"
     width="50px"
     inkscape:snap-bbox="true"
     inkscape:snap-bbox-edge-midpoints="true"
     inkscape:bbox-nodes="true"
     inkscape:snap-bbox-midpoints="true"
     inkscape:bbox-paths="true"
     inkscape:snap-intersection-paths="true"
     inkscape:snap-object-midpoints="true"
     inkscape:snap-center="true"
     inkscape:snap-page="true"
     inkscape:snap-text-baseline="true"
     inkscape:snap-midpoints="true"
     inkscape:snap-smooth-nodes="true"
     inkscape:snap-nodes="true"
     inkscape:object-paths="true"
     inkscape:object-nodes="true"
     inkscape:zoom="9.92777"
     inkscape:cx="9.7705728"
     inkscape:cy="21.555697"
     inkscape:window-width="1920"
     inkscape:window-height="1008"
     inkscape:window-x="-8"
     inkscape:window-y="-8"
     inkscape:window-maximized="1"
     inkscape:current-layer="g2428"
     showguides="true"
     inkscape:lockguides="false" />
  <defs
     id="defs2" />
  <g
     id="g2428">
    <g
       id="path848"
       transform="scale(0.26458333)"
       style="fill:#0063b0;fill-opacity:1">
      <path
         style="color:#000000;fill:#0063b0;stroke-linecap:round;stroke-linejoin:round;-inkscape-stroke:none;paint-order:stroke fill markers;fill-opacity:1"
         d="M 22.019531,5.9609375 C 9.8792752,5.9611402 2.0368223e-4,15.840212 0,27.980469 2.0380176e-4,40.120726 9.8792752,49.999797 22.019531,50 34.159787,49.999797 44.038859,40.120726 44.039062,27.980469 44.038859,15.840212 34.159787,5.9611401 22.019531,5.9609375 Z m 0,5.6835935 c 9.042701,2e-4 16.335738,7.293237 16.335938,16.335938 -2e-4,9.0427 -7.293237,16.335737 -16.335938,16.335937 -9.0427,-2e-4 -16.3357373,-7.293237 -16.3359373,-16.335937 2e-4,-9.0427 7.2932373,-16.335738 16.3359373,-16.335938 z"
         id="path2504" />
      <path
         style="color:#000000;fill:#0063b0;stroke-width:3.41234;stroke-linecap:round;stroke-linejoin:round;-inkscape-stroke:none;paint-order:stroke fill markers;fill-opacity:1"
         d="M 22.019531,7.6679688 A 20.312839,20.312841 0 0 0 1.7070312,27.980469 a 20.312839,20.312841 0 0 0 20.3124998,20.3125 20.312839,20.312841 0 0 0 20.3125,-20.3125 20.312839,20.312841 0 0 0 -20.3125,-20.3125002 z m 0,2.2695312 A 18.043368,18.043368 0 0 1 40.0625,27.980469 18.043368,18.043368 0 0 1 22.019531,46.023438 18.043368,18.043368 0 0 1 3.9765625,27.980469 18.043368,18.043368 0 0 1 22.019531,9.9375 Z"
         id="path2506" />
    </g>
    <circle
       style="display:inline;fill:#0063b0;fill-opacity:1;stroke:none;stroke-width:3.79636;stroke-linecap:round;stroke-linejoin:round;stroke-miterlimit:4;stroke-dasharray:none;stroke-opacity:1;paint-order:stroke fill markers"
       id="path1304"
       cx="5.8258624"
       cy="7.4033041"
       r="1.3316324" />
    <path
       id="path14750"
       style="display:inline;fill:#0063b0;fill-opacity:1;stroke:none;stroke-width:0.332908px;stroke-linecap:butt;stroke-linejoin:miter;stroke-opacity:1"
       d="M 5.8258618,-3.3940532e-8 V 4.0573176 A 3.3459862,3.3459862 0 0 1 9.1718484,7.4033041 H 13.229166 A 7.4033044,7.4033044 0 0 0 5.8258618,-3.3940532e-8 Z" />
  </g>
</svg>
